<?xml version="1.0" standalone="no"?>
<!DOCTYPE svg PUBLIC "-//W3C//DTD SVG 20010904//EN"
 "http://www.w3.org/TR/2001/REC-SVG-20010904/DTD/svg10.dtd">
<svg version="1.0" xmlns="http://www.w3.org/2000/svg"
 width="100.000000pt" height="100.000000pt" viewBox="0 0 100.000000 100.000000"
 preserveAspectRatio="xMidYMid meet">
<metadata>
Created by potrace 1.14, written by Peter Selinger 2001-2017
</metadata>
<g transform="translate(0.000000,100.000000) scale(0.100000,-0.100000)"
fill="#000000" stroke="none">
<path d="M335 933 c-61 -13 -87 -28 -110 -61 -24 -35 -25 -42 -25 -209 0 -140
3 -174 15 -187 20 -20 14 -22 -85 -41 -56 -11 -63 -28 -65 -155 -1 -105 13
-150 45 -150 11 0 20 -4 20 -8 0 -5 7 -9 15 -9 8 0 12 4 9 9 -8 13 10 10 25
-5 8 -6 11 -7 8 -1 -8 14 91 36 99 22 3 -4 9 -6 13 -3 5 2 17 -2 27 -10 10 -8
27 -15 37 -15 9 0 17 -4 17 -10 0 -5 3 -9 8 -8 13 4 82 -26 82 -35 0 -4 4 -6
9 -3 4 3 22 1 40 -4 20 -5 31 -5 31 1 0 6 4 8 8 5 4 -2 27 4 50 14 23 11 42
15 42 10 0 -6 -6 -10 -14 -10 -8 0 -17 -4 -20 -9 -4 -5 4 -7 15 -4 12 4 24 14
26 24 3 11 9 16 14 13 5 -3 9 0 9 5 0 6 5 11 11 11 5 0 7 -6 4 -12 -4 -7 1 -4
9 6 9 11 16 16 16 10 0 -5 5 -1 11 9 6 9 14 15 19 12 5 -3 19 4 31 16 17 17
23 19 30 8 7 -11 9 -10 9 3 0 19 19 20 33 3 5 -6 6 -2 3 8 -5 14 1 21 24 30
16 6 34 23 41 39 6 15 15 26 18 23 4 -2 8 2 8 10 0 8 -5 15 -11 15 -6 0 -4 5
4 10 10 6 11 10 3 10 -7 0 -12 3 -12 8 3 19 -3 33 -25 57 -36 39 -71 45 -143
25 l-62 -17 -36 25 c-34 25 -45 42 -25 42 6 0 10 -6 10 -12 0 -9 4 -8 10 2 9
13 11 13 20 0 6 -10 10 -11 10 -3 0 14 26 13 49 -1 10 -6 12 -5 7 2 -5 8 4 12
29 12 25 0 34 4 29 12 -5 8 -2 9 11 4 15 -5 16 -4 5 9 -7 8 -9 15 -4 15 5 0 9
34 8 75 -1 52 2 72 10 68 7 -4 7 -1 -1 8 -15 19 -14 81 1 72 6 -4 6 -1 -1 8
-7 8 -11 33 -10 55 3 39 -20 101 -45 121 -28 22 -96 36 -168 34 -41 -1 -86 -3
-100 -3 -14 0 -54 2 -90 4 -36 3 -74 3 -85 1z m285 -493 c0 -5 -5 -10 -11 -10
-5 0 -7 5 -4 10 3 6 8 10 11 10 2 0 4 -4 4 -10z"/>
</g>
</svg>
